<?xml version="1.0" encoding="UTF-8"?>
<svg width="20px" height="20px" viewBox="0 0 20 20" version="1.1" xmlns="http://www.w3.org/2000/svg" xmlns:xlink="http://www.w3.org/1999/xlink">
    <title>icon_gzt1</title>
    <defs>
        <linearGradient x1="50%" y1="0%" x2="50%" y2="100%" id="linearGradient-1">
            <stop stop-color="#74C2FF" offset="0%"></stop>
            <stop stop-color="#408FFF" offset="100%"></stop>
        </linearGradient>
    </defs>
    <g id="页面-2" stroke="none" stroke-width="1" fill="none" fill-rule="evenodd">
        <g id="00-概览" transform="translate(-300.000000, -70.000000)">
            <g id="编组-7">
                <g id="侧栏" transform="translate(280.000000, 0.000000)">
                    <g id="1">
                        <g transform="translate(0.000000, 56.000000)">
                            <g id="icon_gzt1_export" transform="translate(20.000000, 14.000000)">
                                <g id="icon_gzt1">
                                    <g id="icon_gzt1_export">
                                        <g id="icon_gzt1">
                                            <rect id="矩形" fill-rule="nonzero" x="0" y="0" width="20" height="20"></rect>
                                            <g id="编组" transform="translate(1.000000, 1.000000)">
                                                <path d="M8.38095498,8.37357955 L4.19416521,8.37357955 C1.88565341,8.37357955 0.00737543706,6.49530157 0.00737543706,4.18678977 C0.00737543706,1.87827797 1.88565341,0 4.19416521,0 C6.50267701,0 8.38095498,1.87827797 8.38095498,4.18678977 L8.38095498,8.37357955 L8.38095498,8.37357955 Z M13.8019012,17.9468969 C11.4933894,17.9468969 9.61511145,16.0686189 9.61511145,13.7601071 L9.61511145,9.57331731 L13.8019012,9.57331731 C16.110413,9.57331731 17.988691,11.4515953 17.988691,13.7601071 C17.988691,16.0686189 16.110413,17.9468969 13.8019012,17.9468969 Z M4.19416521,17.9468969 C1.88565341,17.9468969 0.00737543706,16.0686189 0.00737543706,13.7601071 C0.00737543706,11.4515953 1.88565341,9.57331731 4.19416521,9.57331731 L8.38095498,9.57331731 L8.38095498,13.7601071 C8.38095498,16.0686189 6.50267701,17.9468969 4.19416521,17.9468969 Z" id="形状" fill="url(#linearGradient-1)" fill-rule="nonzero"></path>
                                                <path d="M13.8019012,0.75 C12.8544128,0.75 11.9954046,1.13577291 11.3731445,1.75803305 C10.7508844,2.38029318 10.3651115,3.23930134 10.3651115,4.18678977 L10.3651115,7.62357955 L13.8019012,7.62357955 C14.7493897,7.62357955 15.6083978,7.23780663 16.2306579,6.6155465 C16.8529181,5.99328636 17.238691,5.1342782 17.238691,4.18678977 C17.238691,3.23930134 16.8529181,2.38029318 16.2306579,1.75803305 C15.6083978,1.13577291 14.7493897,0.75 13.8019012,0.75 Z" id="路径" stroke="#4493FF" stroke-width="1.5"></path>
                                            </g>
                                        </g>
                                    </g>
                                </g>
                            </g>
                        </g>
                    </g>
                </g>
            </g>
        </g>
    </g>
</svg>