<?xml version="1.0" encoding="utf-8"?>
<svg version="1.1" xmlns:xlink="http://www.w3.org/1999/xlink" width="7px" height="12px" xmlns="http://www.w3.org/2000/svg">
  <g transform="matrix(1 0 0 1 -85 -180 )">
    <path d="M 7 1.712158808933002  C 7 1.841191066997518  6.957207207207207 1.9528535980148871  6.871621621621621 2.047146401985112  L 3.2837837837837838 6  L 6.871621621621621 9.952853598014888  C 6.957207207207207 10.047146401985112  7 10.158808933002483  7 10.287841191066999  C 7 10.416873449131513  6.957207207207207 10.528535980148883  6.871621621621621 10.622828784119108  L 5.75 11.858560794044665  C 5.664414414414415 11.952853598014888  5.563063063063063 12  5.445945945945946 12  C 5.328828828828829 12  5.227477477477478 11.952853598014888  5.141891891891892 11.858560794044665  L 0.1283783783783784 6.334987593052109  C 0.042792792792792855 6.240694789081886  0 6.129032258064516  0 6  C 0 5.870967741935484  0.042792792792792855 5.7593052109181135  0.1283783783783784 5.665012406947891  L 5.141891891891892 0.14143920595533466  C 5.227477477477478 0.04714640198511111  5.328828828828829 0  5.445945945945946 0  C 5.563063063063063 0  5.664414414414415 0.04714640198511111  5.75 0.14143920595533466  L 6.871621621621621 1.3771712158808933  C 6.957207207207207 1.4714640198511155  7 1.5831265508684846  7 1.712158808933002  Z " fill-rule="nonzero" fill="#282e39" stroke="none" transform="matrix(1 0 0 1 85 180 )" />
  </g>
</svg>