<svg t="1693460996715" class="icon" viewBox="0 0 1024 1024" version="1.1" xmlns="http://www.w3.org/2000/svg" p-id="7099" width="200" height="200"><path d="M229.973333 314.24a85.333333 85.333333 0 0 1-60.16-21.333333 69.333333 69.333333 0 0 1-23.68-53.973334A67.2 67.2 0 0 1 170.666667 185.813333a85.333333 85.333333 0 0 1 60.16-21.333333 86.826667 86.826667 0 0 1 60.586666 21.333333 68.693333 68.693333 0 0 1 22.186667 53.12 69.973333 69.973333 0 0 1-23.04 53.973334 85.333333 85.333333 0 0 1-60.586667 21.333333z m71.04 544.426667H156.373333v-469.333334h145.28v469.333334zM877.44 858.666667h-144.853333V597.333333c0-73.173333-25.813333-109.226667-78.08-109.226666a77.653333 77.653333 0 0 0-62.08 29.226666 111.146667 111.146667 0 0 0-24.533334 73.6v268.16h-144.64V388.693333h145.066667v74.026667h1.92a166.613333 166.613333 0 0 1 151.253333-85.333333q156.16 0 156.373334 193.706666v287.573334z" fill="#ffffff" p-id="7100"></path></svg>