<svg t="1671527239959" class="icon" viewBox="0 0 1024 1024" version="1.1" xmlns="http://www.w3.org/2000/svg" p-id="3582" width="3000" height="3000"><path d="M298.666667 298.666667h213.333333v85.333333H298.666667v-85.333333zM298.666667 640h213.333333v85.333333H298.666667v-85.333333z" fill="#4D9BFF" p-id="3583"></path><path d="M128 170.666667a42.666667 42.666667 0 0 1 42.666667-42.666667h682.666666a42.666667 42.666667 0 0 1 42.666667 42.666667v341.333333a42.666667 42.666667 0 0 1-42.666667 42.666667H170.666667a42.666667 42.666667 0 0 1-42.666667-42.666667V170.666667z m85.333333 42.666666v256h597.333334V213.333333H213.333333z" fill="#4D9BFF" p-id="3584"></path><path d="M128 512a42.666667 42.666667 0 0 1 42.666667-42.666667h682.666666a42.666667 42.666667 0 0 1 42.666667 42.666667v341.333333a42.666667 42.666667 0 0 1-42.666667 42.666667H170.666667a42.666667 42.666667 0 0 1-42.666667-42.666667V512z m85.333333 42.666667v256h597.333334V554.666667H213.333333z" fill="#4D9BFF" p-id="3585"></path><path d="M725.333333 341.333333a42.666667 42.666667 0 1 1-85.333333 0 42.666667 42.666667 0 0 1 85.333333 0zM725.333333 682.666667a42.666667 42.666667 0 1 1-85.333333 0 42.666667 42.666667 0 0 1 85.333333 0z" fill="#4D9BFF" p-id="3586"></path></svg>