<?xml version="1.0" encoding="utf-8"?>
<svg version="1.1" xmlns:xlink="http://www.w3.org/1999/xlink" width="5px" height="8px" xmlns="http://www.w3.org/2000/svg">
  <g transform="matrix(1 0 0 1 -1718 -25 )">
    <path d="M 4.914089347079037 3.8156312625250504  C 4.971363115693014 3.869071476285905  5 3.930527722110888  5 4  C 5 4.069472277889111  4.971363115693014 4.130928523714094  4.914089347079037 4.18436873747495  L 0.9106529209621993 7.919839679358717  C 0.8533791523482246 7.973279893119573  0.7875143184421535 8  0.7130584192439862 8  C 0.6386025200458191 8  0.5727376861397481 7.973279893119573  0.5154639175257731 7.919839679358717  L 0.0859106529209622 7.519038076152305  C 0.02863688430698742 7.465597862391449  0 7.404141616566466  0 7.3346693386773545  C 0 7.265197060788243  0.02863688430698742 7.20374081496326  0.0859106529209622 7.150300601202405  L 3.4621993127147768 4  L 0.0859106529209622 0.8496993987975952  C 0.02863688430698742 0.7962591850367398  0 0.7348029392117565  0 0.6653306613226455  C 0 0.5958583834335327  0.02863688430698742 0.5344021376085495  0.0859106529209622 0.480961923847695  L 0.5154639175257731 0.08016032064128265  C 0.5727376861397481 0.026720106880427252  0.6386025200458191 0  0.7130584192439862 0  C 0.7875143184421535 0  0.8533791523482246 0.026720106880427252  0.9106529209621993 0.08016032064128265  L 4.914089347079037 3.8156312625250504  Z " fill-rule="nonzero" fill="#ffffff" stroke="none" transform="matrix(1 0 0 1 1718 25 )" />
  </g>
</svg>