<?xml version="1.0" encoding="utf-8"?>
<!-- Generator: Adobe Illustrator 25.2.3, SVG Export Plug-In . SVG Version: 6.00 Build 0)  -->
<svg version="1.1" id="图层_1" xmlns="http://www.w3.org/2000/svg" xmlns:xlink="http://www.w3.org/1999/xlink" x="0px" y="0px"
	 viewBox="0 0 347.66 195.56" style="enable-background:new 0 0 347.66 195.56;" xml:space="preserve">
<style type="text/css">
	.st0{fill:#040000;}
	.st1{fill:url(#SVGID_1_);}
	.st2{fill:url(#SVGID_2_);}
	.st3{fill:url(#SVGID_3_);}
</style>
<g>
	<g>
		<g>
			<path class="st0" d="M192.73,85.71c-0.3,2.98-2.01,14.98-18.42,14.98c-18.03,0-19.39-14.45-19.39-26.8
				c0-14.93,5.2-26.04,20.22-26.04c16.32,0,17.23,11.59,17.4,14.73h-7.49c-0.14-1.74-0.56-9.71-10.05-9.71
				c-10.68,0-12.32,11.06-12.32,21.05c0,10.84,1.58,21.8,11.82,21.8c9.03,0,10.4-7.41,10.7-10.01H192.73z"/>
			<path class="st0" d="M231.92,75.28h-22.6v19.67h25.1l-1.02,4.98h-31.44V48.57h31.08v5.03h-23.72v16.67h22.6V75.28z"/>
			<path class="st0" d="M247.48,86.44c0.53,5.28,3.88,9.49,11.31,9.49c7.1,0,10.67-2.94,10.67-8.86c0-5.4-2.89-8.28-12.1-11.64
				c-10.61-3.84-15.29-7.4-15.29-14.84c0-7.05,5.96-12.7,17-12.7c13.08,0,16.61,7.11,16.81,13.13h-7.32
				c-0.33-2.49-1.33-8.42-9.75-8.42c-6.51,0-9.28,3.39-9.28,7.49c0,4.92,2.9,7.24,11.38,10.3c11.84,4.28,16.17,8.56,16.17,16.21
				c0,8.11-6.04,14.04-18.51,14.04c-13.57,0-18.04-6.74-18.56-14.2H247.48z"/>
			<path class="st0" d="M291.46,86.44c0.53,5.28,3.88,9.49,11.31,9.49c7.1,0,10.67-2.94,10.67-8.86c0-5.4-2.89-8.28-12.1-11.64
				c-10.61-3.84-15.29-7.4-15.29-14.84c0-7.05,5.96-12.7,17-12.7c13.08,0,16.61,7.11,16.81,13.13h-7.32
				c-0.33-2.49-1.33-8.42-9.75-8.42c-6.51,0-9.28,3.39-9.28,7.49c0,4.92,2.9,7.24,11.38,10.3c11.84,4.28,16.17,8.56,16.17,16.21
				c0,8.11-6.04,14.04-18.51,14.04c-13.57,0-18.04-6.74-18.56-14.2H291.46z"/>
		</g>
		<g>
			<g>
				<linearGradient id="SVGID_1_" gradientUnits="userSpaceOnUse" x1="39.474" y1="77.668" x2="90.6164" y2="77.668">
					<stop  offset="0" style="stop-color:#379CD0"/>
					<stop  offset="1" style="stop-color:#275DA3"/>
				</linearGradient>
				<path class="st1" d="M86.55,81.74h-43c-2.25,0-4.07-1.82-4.07-4.07c0-2.25,1.82-4.07,4.07-4.07h43c2.25,0,4.07,1.82,4.07,4.07
					C90.62,79.92,88.79,81.74,86.55,81.74z"/>
			</g>
			<linearGradient id="SVGID_2_" gradientUnits="userSpaceOnUse" x1="26.5876" y1="56.1533" x2="129.2925" y2="56.1533">
				<stop  offset="0" style="stop-color:#379CD0"/>
				<stop  offset="1" style="stop-color:#275DA3"/>
			</linearGradient>
			<path class="st2" d="M127.23,53.99c-8.41-14.44-24-23.41-40.69-23.41c-12.66,0-24.17,5.03-32.64,13.19h13.5
				c5.66-3.21,12.18-5.05,19.14-5.05c12.42,0,24.12,6.02,31.41,15.94l-13.64,7.86c-4.77-6.59-12.4-10.55-20.77-10.55H57.31
				c0.01-0.01,0.02-0.02,0.02-0.03h-10.2c-0.01,0.01-0.01,0.02-0.02,0.03H30.66c-2.25,0-4.07,1.82-4.07,4.07
				c0,2.25,1.82,4.07,4.07,4.07h12.21c-2.19,5.43-3.39,11.35-3.39,17.55c0,2.25,1.82,4.07,4.07,4.07c2.25,0,4.07-1.82,4.07-4.07
				c0-6.31,1.51-12.27,4.18-17.55h31.75c6.72,0,12.74,3.73,15.71,9.73l1.92,3.88l28.11-16.19L127.23,53.99z"/>
			<linearGradient id="SVGID_3_" gradientUnits="userSpaceOnUse" x1="26.5876" y1="99.1699" x2="129.2925" y2="99.1699">
				<stop  offset="0" style="stop-color:#379CD0"/>
				<stop  offset="1" style="stop-color:#275DA3"/>
			</linearGradient>
			<path class="st3" d="M101.18,81.61l-1.92,3.88c-2.97,6-8.99,9.73-15.71,9.73H51.8c-2.68-5.28-4.18-11.24-4.18-17.55
				c0-2.25-1.82-4.07-4.07-4.07c-2.25,0-4.07,1.82-4.07,4.07c0,6.2,1.2,12.12,3.39,17.55H30.66c-2.25,0-4.07,1.82-4.07,4.07
				c0,2.25,1.82,4.07,4.07,4.07h16.46c0.01,0.01,0.02,0.03,0.03,0.04h10.2c-0.01-0.01-0.02-0.03-0.04-0.04h26.24
				c8.37,0,16-3.95,20.77-10.55l13.64,7.86c-7.29,9.92-18.98,15.94-31.41,15.94c-6.94,0-13.46-1.84-19.11-5.04H53.92
				c8.47,8.15,19.97,13.18,32.62,13.18c16.68,0,32.27-8.97,40.69-23.41l2.06-3.53L101.18,81.61z"/>
		</g>
	</g>
	<g>
		<path class="st0" d="M44.26,156.32c-0.95,0.5-2.13,0.75-3.56,0.75c-1.84,0-3.32-0.59-4.42-1.76c-1.1-1.17-1.65-2.72-1.65-4.64
			c0-2.07,0.62-3.74,1.86-5c1.24-1.26,2.81-1.89,4.72-1.89c1.23,0,2.24,0.17,3.05,0.52v1.73c-0.92-0.51-1.93-0.76-3.03-0.76
			c-1.43,0-2.6,0.48-3.5,1.43c-0.9,0.95-1.35,2.24-1.35,3.86c0,1.54,0.42,2.76,1.26,3.66c0.84,0.91,1.94,1.36,3.3,1.36
			c1.27,0,2.38-0.29,3.32-0.86V156.32z"/>
		<path class="st0" d="M54.21,156.85h-1.63v-1.44h-0.03c-0.62,1.11-1.56,1.66-2.83,1.66c-2.18,0-3.26-1.3-3.26-3.9v-5.5h1.61v5.25
			c0,1.86,0.71,2.8,2.14,2.8c0.71,0,1.28-0.26,1.72-0.78c0.44-0.52,0.66-1.18,0.66-1.98v-5.29h1.63V156.85z"/>
		<path class="st0" d="M70.32,156.85h-1.63v-5.27c0-1-0.16-1.71-0.46-2.14c-0.31-0.43-0.82-0.64-1.53-0.64
			c-0.6,0-1.11,0.28-1.54,0.84c-0.43,0.56-0.64,1.22-0.64,1.98v5.23H62.9v-5.44c0-1.74-0.67-2.61-2.02-2.61
			c-0.62,0-1.13,0.27-1.54,0.8c-0.41,0.53-0.61,1.21-0.61,2.03v5.22h-1.63v-9.18h1.63v1.45h0.03c0.65-1.11,1.61-1.67,2.86-1.67
			c0.61,0,1.16,0.17,1.63,0.51c0.47,0.34,0.8,0.79,0.98,1.37c0.68-1.25,1.7-1.88,3.05-1.88c2.02,0,3.03,1.25,3.03,3.74V156.85z"/>
		<path class="st0" d="M80.61,156.85h-1.63v-1.44h-0.03c-0.62,1.11-1.56,1.66-2.83,1.66c-2.17,0-3.26-1.3-3.26-3.9v-5.5h1.61v5.25
			c0,1.86,0.71,2.8,2.14,2.8c0.71,0,1.28-0.26,1.72-0.78c0.44-0.52,0.66-1.18,0.66-1.98v-5.29h1.63V156.85z"/>
		<path class="st0" d="M83.5,156.85v-13.59h1.63v13.59H83.5z"/>
		<path class="st0" d="M95.61,156.85h-1.63v-1.44h-0.03c-0.62,1.11-1.56,1.66-2.83,1.66c-2.18,0-3.26-1.3-3.26-3.9v-5.5h1.61v5.25
			c0,1.86,0.71,2.8,2.14,2.8c0.71,0,1.28-0.26,1.72-0.78c0.44-0.52,0.66-1.18,0.66-1.98v-5.29h1.63V156.85z"/>
		<path class="st0" d="M97.99,154.87c0.82,0.59,1.7,0.89,2.65,0.89c1.27,0,1.9-0.42,1.9-1.25c0-0.35-0.14-0.65-0.41-0.88
			c-0.28-0.23-0.84-0.5-1.69-0.82c-1.02-0.41-1.68-0.81-1.98-1.22c-0.3-0.4-0.46-0.89-0.46-1.46c0-0.81,0.35-1.46,1.03-1.96
			c0.69-0.49,1.54-0.73,2.54-0.73c0.78,0,1.51,0.14,2.18,0.41v1.57c-0.69-0.44-1.46-0.66-2.33-0.66c-0.52,0-0.94,0.11-1.27,0.34
			c-0.33,0.23-0.49,0.53-0.49,0.9c0,0.37,0.12,0.65,0.35,0.85c0.23,0.21,0.76,0.47,1.56,0.79c1.02,0.38,1.71,0.78,2.08,1.19
			c0.36,0.41,0.54,0.92,0.54,1.52c0,0.84-0.35,1.5-1.03,1.99c-0.69,0.48-1.58,0.73-2.68,0.73c-0.95,0-1.78-0.18-2.49-0.54V154.87z"
			/>
		<path class="st0" d="M118.53,156.85h-6.91v-12.86h6.62v1.48h-4.96v4.12h4.6v1.47h-4.6v4.33h5.25V156.85z"/>
		<path class="st0" d="M128.52,156.85h-1.62v-5.22c0-1.89-0.69-2.83-2.07-2.83c-0.71,0-1.3,0.27-1.76,0.8
			c-0.46,0.53-0.69,1.2-0.69,2.02v5.24h-1.63v-9.18h1.63v1.52h0.03c0.69-1.16,1.7-1.73,3.01-1.73c1.01,0,1.77,0.32,2.3,0.97
			c0.53,0.64,0.79,1.58,0.79,2.82V156.85z"/>
		<path class="st0" d="M137.57,156.43c-0.7,0.42-1.55,0.63-2.54,0.63c-1.33,0-2.39-0.43-3.2-1.28c-0.81-0.85-1.21-1.96-1.21-3.31
			c0-1.5,0.44-2.72,1.31-3.64c0.87-0.92,2.04-1.38,3.5-1.38c0.84,0,1.56,0.15,2.16,0.45v1.61c-0.65-0.48-1.37-0.71-2.16-0.71
			c-0.93,0-1.69,0.32-2.27,0.97s-0.88,1.5-0.88,2.58c0,1.06,0.28,1.88,0.83,2.48c0.55,0.6,1.29,0.9,2.23,0.9
			c0.79,0,1.54-0.26,2.24-0.78V156.43z"/>
		<path class="st0" d="M144.68,149.28c-0.27-0.19-0.64-0.29-1.12-0.29c-0.63,0-1.15,0.29-1.56,0.88c-0.41,0.59-0.61,1.37-0.61,2.33
			v4.65h-1.63v-9.18h1.63v1.87h0.03c0.46-1.35,1.27-2.03,2.41-2.03c0.37,0,0.66,0.04,0.86,0.12V149.28z"/>
		<path class="st0" d="M154.46,147.67l-4.17,10.57c-0.78,1.96-1.87,2.94-3.28,2.94c-0.4,0-0.75-0.04-1.04-0.13v-1.43
			c0.32,0.12,0.62,0.18,0.91,0.18c0.73,0,1.29-0.43,1.65-1.29l0.71-1.67l-3.6-9.16h1.8l2.4,6.9l0.2,0.76h0.04
			c0.03-0.17,0.1-0.42,0.2-0.74l2.51-6.91H154.46z"/>
		<path class="st0" d="M157.61,155.55v5.52h-1.63v-13.41h1.63v1.58h0.03c0.72-1.2,1.77-1.8,3.15-1.8c1.17,0,2.09,0.41,2.76,1.23
			c0.67,0.82,1,1.92,1,3.31c0,1.53-0.38,2.75-1.13,3.68c-0.76,0.93-1.77,1.39-3.05,1.39c-1.18,0-2.09-0.5-2.73-1.51H157.61z
			 M157.6,153.06c0,0.75,0.24,1.38,0.72,1.89c0.48,0.51,1.08,0.77,1.81,0.77c0.86,0,1.54-0.33,2.03-1c0.49-0.66,0.73-1.58,0.73-2.76
			c0-0.99-0.23-1.77-0.68-2.33c-0.45-0.56-1.07-0.84-1.86-0.84c-0.8,0-1.46,0.29-1.97,0.85c-0.52,0.57-0.77,1.3-0.77,2.19V153.06z"
			/>
		<path class="st0" d="M171.25,156.76c-0.35,0.19-0.83,0.29-1.44,0.29c-1.64,0-2.46-0.91-2.46-2.73v-5.3h-1.58v-1.34h1.58v-2.21
			l1.62-0.51v2.72h2.28v1.34h-2.28v5.01c0,0.6,0.1,1.04,0.31,1.29c0.21,0.26,0.54,0.39,1.02,0.39c0.37,0,0.68-0.1,0.95-0.31V156.76z
			"/>
		<path class="st0" d="M180.51,152.67h-6.42c0.03,0.98,0.29,1.74,0.8,2.27c0.51,0.53,1.22,0.8,2.13,0.8c1.03,0,1.97-0.33,2.83-0.99
			v1.45c-0.81,0.57-1.88,0.85-3.21,0.85c-1.33,0-2.37-0.42-3.11-1.26c-0.74-0.84-1.12-2.01-1.12-3.5c0-1.41,0.41-2.56,1.22-3.48
			c0.82-0.91,1.83-1.37,3.04-1.37c1.2,0,2.14,0.39,2.81,1.16c0.67,0.77,1.01,1.85,1.01,3.24V152.67z M178.89,151.37
			c-0.01-0.83-0.2-1.47-0.59-1.93c-0.39-0.45-0.93-0.68-1.63-0.68c-0.65,0-1.21,0.24-1.68,0.72c-0.47,0.48-0.77,1.11-0.89,1.88
			H178.89z"/>
		<path class="st0" d="M190.65,156.85h-1.63v-1.53h-0.03c-0.67,1.16-1.71,1.74-3.12,1.74c-1.16,0-2.09-0.41-2.77-1.24
			c-0.69-0.83-1.03-1.94-1.03-3.35c0-1.52,0.39-2.73,1.16-3.65c0.78-0.92,1.79-1.37,3.04-1.37c1.25,0,2.16,0.49,2.72,1.46h0.03
			v-5.65h1.63V156.85z M189.03,151.39c0-0.74-0.24-1.35-0.73-1.85c-0.48-0.5-1.08-0.74-1.79-0.74c-0.86,0-1.54,0.32-2.04,0.97
			c-0.5,0.64-0.75,1.52-0.75,2.64c0,1.02,0.24,1.83,0.72,2.43c0.48,0.59,1.12,0.89,1.91,0.89c0.79,0,1.43-0.29,1.93-0.88
			c0.5-0.58,0.75-1.31,0.75-2.18V151.39z"/>
		<path class="st0" d="M198.19,154.43c0.39,0.34,0.92,0.63,1.58,0.85c0.66,0.22,1.29,0.33,1.88,0.33c1.8,0,2.71-0.64,2.71-1.93
			c0-0.36-0.1-0.68-0.29-0.97c-0.2-0.29-0.46-0.54-0.8-0.76c-0.34-0.22-0.97-0.56-1.9-1.02c-1.29-0.64-2.14-1.24-2.55-1.79
			c-0.41-0.55-0.62-1.18-0.62-1.89c0-1.07,0.43-1.92,1.29-2.54c0.86-0.62,1.94-0.94,3.25-0.94c1.28,0,2.21,0.16,2.81,0.46v1.81
			c-0.77-0.54-1.75-0.81-2.94-0.81c-0.79,0-1.43,0.17-1.92,0.49c-0.5,0.33-0.74,0.79-0.74,1.37c0,0.52,0.17,0.94,0.51,1.27
			c0.34,0.33,1.09,0.77,2.23,1.34c1.26,0.6,2.14,1.21,2.65,1.81c0.5,0.6,0.76,1.28,0.76,2.03c0,1.13-0.41,2-1.23,2.6
			c-0.82,0.6-1.96,0.91-3.41,0.91c-0.51,0-1.1-0.07-1.78-0.21c-0.68-0.14-1.17-0.32-1.48-0.53V154.43z"/>
		<path class="st0" d="M212.21,156.76c-0.35,0.19-0.83,0.29-1.44,0.29c-1.64,0-2.46-0.91-2.46-2.73v-5.3h-1.58v-1.34h1.58v-2.21
			l1.62-0.51v2.72h2.28v1.34h-2.28v5.01c0,0.6,0.1,1.04,0.31,1.29c0.21,0.26,0.54,0.39,1.02,0.39c0.37,0,0.68-0.1,0.95-0.31V156.76z
			"/>
		<path class="st0" d="M213.38,152.36c0-1.52,0.42-2.71,1.27-3.59c0.85-0.88,2-1.32,3.45-1.32c1.38,0,2.46,0.42,3.24,1.27
			c0.78,0.84,1.17,2.01,1.17,3.5c0,1.45-0.42,2.62-1.25,3.51c-0.84,0.89-1.96,1.34-3.36,1.34c-1.37,0-2.47-0.43-3.29-1.29
			C213.79,154.91,213.38,153.77,213.38,152.36z M215.04,152.31c0,1.06,0.27,1.89,0.8,2.5c0.54,0.61,1.25,0.91,2.15,0.91
			c0.93,0,1.64-0.3,2.12-0.89c0.49-0.59,0.73-1.45,0.73-2.56c0-1.12-0.24-1.98-0.73-2.57c-0.49-0.6-1.2-0.9-2.12-0.9
			c-0.91,0-1.63,0.31-2.16,0.94C215.31,150.36,215.04,151.22,215.04,152.31z"/>
		<path class="st0" d="M229.73,149.28c-0.27-0.19-0.64-0.29-1.12-0.29c-0.63,0-1.15,0.29-1.56,0.88c-0.41,0.59-0.61,1.37-0.61,2.33
			v4.65h-1.63v-9.18h1.63v1.87h0.03c0.46-1.35,1.27-2.03,2.41-2.03c0.37,0,0.66,0.04,0.86,0.12V149.28z"/>
		<path class="st0" d="M231.51,148.31c0.91-0.57,1.97-0.86,3.16-0.86c2.21,0,3.32,1.16,3.32,3.49v5.91h-1.61v-1.42h-0.04
			c-0.64,1.09-1.58,1.64-2.81,1.64c-0.89,0-1.6-0.24-2.12-0.72c-0.53-0.48-0.79-1.13-0.79-1.95c0-1.72,1.02-2.71,3.05-3l2.72-0.38
			c0-1.5-0.62-2.25-1.86-2.25c-1.1,0-2.11,0.37-3.01,1.11V148.31z M234.23,152.53c-0.75,0.1-1.27,0.29-1.56,0.56
			c-0.29,0.28-0.43,0.66-0.43,1.16c0,0.44,0.16,0.79,0.46,1.07c0.31,0.28,0.72,0.42,1.23,0.42c0.71,0,1.29-0.25,1.75-0.75
			c0.46-0.5,0.69-1.12,0.69-1.88v-0.88L234.23,152.53z"/>
		<path class="st0" d="M248.66,156.08c0,3.4-1.65,5.1-4.95,5.1c-1.14,0-2.13-0.21-2.97-0.64v-1.57c1.02,0.57,2.01,0.85,2.95,0.85
			c2.23,0,3.35-1.17,3.35-3.52v-0.97H247c-0.7,1.16-1.74,1.74-3.12,1.74c-1.15,0-2.07-0.41-2.77-1.24
			c-0.69-0.82-1.04-1.92-1.04-3.28c0-1.57,0.38-2.81,1.15-3.72c0.76-0.92,1.78-1.37,3.05-1.37c1.22,0,2.13,0.49,2.72,1.46h0.03
			v-1.25h1.63V156.08z M247.04,151.39c0-0.71-0.23-1.32-0.71-1.83c-0.48-0.51-1.07-0.76-1.78-0.76c-0.89,0-1.58,0.33-2.07,0.98
			c-0.49,0.65-0.74,1.54-0.74,2.68c0,0.97,0.24,1.76,0.71,2.37c0.47,0.6,1.11,0.9,1.89,0.9c0.79,0,1.44-0.29,1.94-0.86
			s0.75-1.31,0.75-2.19V151.39z"/>
		<path class="st0" d="M259.05,152.67h-6.43c0.03,0.98,0.3,1.74,0.81,2.27c0.51,0.53,1.22,0.8,2.13,0.8c1.03,0,1.97-0.33,2.83-0.99
			v1.45c-0.81,0.57-1.88,0.85-3.21,0.85c-1.33,0-2.36-0.42-3.11-1.26c-0.74-0.84-1.12-2.01-1.12-3.5c0-1.41,0.41-2.56,1.22-3.48
			c0.82-0.91,1.83-1.37,3.04-1.37c1.2,0,2.14,0.39,2.81,1.16c0.68,0.77,1.01,1.85,1.01,3.24V152.67z M257.42,151.37
			c-0.01-0.83-0.2-1.47-0.59-1.93c-0.39-0.45-0.93-0.68-1.63-0.68c-0.65,0-1.21,0.24-1.68,0.72c-0.47,0.48-0.77,1.11-0.89,1.88
			H257.42z"/>
		<path class="st0" d="M265.85,154.43c0.39,0.34,0.92,0.63,1.58,0.85c0.66,0.22,1.29,0.33,1.88,0.33c1.8,0,2.7-0.64,2.7-1.93
			c0-0.36-0.1-0.68-0.29-0.97c-0.2-0.29-0.46-0.54-0.8-0.76c-0.34-0.22-0.97-0.56-1.9-1.02c-1.29-0.64-2.14-1.24-2.55-1.79
			c-0.41-0.55-0.62-1.18-0.62-1.89c0-1.07,0.43-1.92,1.29-2.54c0.86-0.62,1.94-0.94,3.25-0.94c1.28,0,2.21,0.16,2.81,0.46v1.81
			c-0.77-0.54-1.75-0.81-2.94-0.81c-0.79,0-1.43,0.17-1.92,0.49c-0.5,0.33-0.74,0.79-0.74,1.37c0,0.52,0.17,0.94,0.51,1.27
			c0.34,0.33,1.09,0.77,2.23,1.34c1.26,0.6,2.14,1.21,2.65,1.81c0.5,0.6,0.76,1.28,0.76,2.03c0,1.13-0.41,2-1.23,2.6
			c-0.82,0.6-1.96,0.91-3.41,0.91c-0.51,0-1.1-0.07-1.78-0.21c-0.68-0.14-1.17-0.32-1.48-0.53V154.43z"/>
		<path class="st0" d="M283.1,147.67l-4.17,10.57c-0.77,1.96-1.87,2.94-3.28,2.94c-0.4,0-0.75-0.04-1.04-0.13v-1.43
			c0.32,0.12,0.62,0.18,0.91,0.18c0.74,0,1.29-0.43,1.65-1.29l0.71-1.67l-3.6-9.16h1.8l2.4,6.9l0.2,0.76h0.04
			c0.03-0.17,0.1-0.42,0.2-0.74l2.51-6.91H283.1z"/>
		<path class="st0" d="M284.11,154.87c0.82,0.59,1.7,0.89,2.65,0.89c1.27,0,1.9-0.42,1.9-1.25c0-0.35-0.14-0.65-0.41-0.88
			c-0.28-0.23-0.84-0.5-1.69-0.82c-1.02-0.41-1.68-0.81-1.98-1.22c-0.3-0.4-0.45-0.89-0.45-1.46c0-0.81,0.34-1.46,1.03-1.96
			c0.69-0.49,1.54-0.73,2.54-0.73c0.78,0,1.51,0.14,2.18,0.41v1.57c-0.69-0.44-1.46-0.66-2.33-0.66c-0.52,0-0.94,0.11-1.27,0.34
			c-0.33,0.23-0.49,0.53-0.49,0.9c0,0.37,0.12,0.65,0.35,0.85c0.24,0.21,0.76,0.47,1.56,0.79c1.03,0.38,1.72,0.78,2.08,1.19
			c0.36,0.41,0.54,0.92,0.54,1.52c0,0.84-0.34,1.5-1.03,1.99c-0.69,0.48-1.58,0.73-2.68,0.73c-0.95,0-1.78-0.18-2.49-0.54V154.87z"
			/>
		<path class="st0" d="M296.91,156.76c-0.36,0.19-0.83,0.29-1.44,0.29c-1.64,0-2.46-0.91-2.46-2.73v-5.3h-1.58v-1.34H293v-2.21
			l1.62-0.51v2.72h2.28v1.34h-2.28v5.01c0,0.6,0.1,1.04,0.31,1.29c0.21,0.26,0.54,0.39,1.02,0.39c0.37,0,0.68-0.1,0.96-0.31V156.76z
			"/>
		<path class="st0" d="M306.17,152.67h-6.43c0.03,0.98,0.3,1.74,0.81,2.27c0.51,0.53,1.22,0.8,2.13,0.8c1.03,0,1.97-0.33,2.83-0.99
			v1.45c-0.81,0.57-1.88,0.85-3.21,0.85c-1.33,0-2.36-0.42-3.11-1.26c-0.74-0.84-1.12-2.01-1.12-3.5c0-1.41,0.41-2.56,1.22-3.48
			c0.82-0.91,1.83-1.37,3.04-1.37c1.2,0,2.14,0.39,2.81,1.16c0.68,0.77,1.01,1.85,1.01,3.24V152.67z M304.54,151.37
			c-0.01-0.83-0.2-1.47-0.59-1.93c-0.39-0.45-0.93-0.68-1.63-0.68c-0.65,0-1.21,0.24-1.68,0.72c-0.47,0.48-0.77,1.11-0.89,1.88
			H304.54z"/>
		<path class="st0" d="M321.55,156.85h-1.63v-5.27c0-1-0.15-1.71-0.46-2.14c-0.31-0.43-0.82-0.64-1.53-0.64
			c-0.6,0-1.11,0.28-1.54,0.84c-0.43,0.56-0.64,1.22-0.64,1.98v5.23h-1.63v-5.44c0-1.74-0.67-2.61-2.02-2.61
			c-0.62,0-1.13,0.27-1.54,0.8c-0.41,0.53-0.61,1.21-0.61,2.03v5.22h-1.63v-9.18h1.63v1.45H310c0.65-1.11,1.61-1.67,2.86-1.67
			c0.62,0,1.16,0.17,1.63,0.51c0.47,0.34,0.8,0.79,0.98,1.37c0.68-1.25,1.7-1.88,3.05-1.88c2.02,0,3.03,1.25,3.03,3.74V156.85z"/>
	</g>
</g>
</svg>
