<?xml version="1.0" encoding="UTF-8"?>
<svg width="24px" height="24px" viewBox="0 0 24 24" version="1.1" xmlns="http://www.w3.org/2000/svg" xmlns:xlink="http://www.w3.org/1999/xlink">
    <title>icon_miner</title>
    <defs>
        <linearGradient x1="50%" y1="0%" x2="50%" y2="100%" id="linearGradient-1">
            <stop stop-color="#74C2FF" offset="0%"></stop>
            <stop stop-color="#408FFF" offset="100%"></stop>
        </linearGradient>
        <linearGradient x1="50%" y1="0%" x2="50%" y2="100%" id="linearGradient-2">
            <stop stop-color="#74C2FF" offset="0%"></stop>
            <stop stop-color="#408FFF" offset="100%"></stop>
        </linearGradient>
    </defs>
    <g id="页面-2" stroke="none" stroke-width="1" fill="none" fill-rule="evenodd">
        <g id="00-概览" transform="translate(-560.000000, -928.000000)">
            <g id="编组-12" transform="translate(540.000000, 20.000000)">
                <g id="编组-16备份-3" transform="translate(0.000000, 888.000000)">
                    <g id="编组-3" transform="translate(20.000000, 20.000000)">
                        <g id="icon_miner">
                            <g>
                                <g>
                                    <rect id="矩形" fill-rule="nonzero" x="0" y="0" width="24" height="24"></rect>
                                    <g id="编组" transform="translate(1.000000, 5.000000)">
                                        <path d="M0.000616653386,12.4589869 C-0.0280807897,11.3976704 0.949033218,10.8489959 2.05682895,10.6508397 C2.41227447,6.17954954 4.68366286,1.49534833 8.57451954,0.673168784 C8.92359515,0.519209737 10.1063194,0.0262258947 11.1105111,0 C12.1752935,0 13.2001928,0.494625772 13.5492684,0.682975379 C18.8842784,1.89170572 19.9936502,8.09579424 20.2247839,10.7097917 C21.1062398,10.9177995 22.1152253,11.3583765 21.9892936,12.4901161 C21.9908916,13.209124 20.1482574,16 11.1328167,16 C4.83986801,16 0.0531957977,14.4768063 0.000616653386,12.4589869 Z M1.69976358,12.455748 C2.36921736,13.0814133 5.28457987,14.3621636 11.1312406,14.3621636 C17.3763821,14.3621636 19.5840276,12.9781966 20.2295778,12.4066026 C20.055839,12.3443667 19.778496,12.2673759 19.346524,12.1953334 C18.9783167,12.1347395 18.6930059,11.7269111 18.6722764,11.3420247 C18.5734442,9.59937472 17.9533956,4.12736203 14.0737026,2.55178405 L14.0944103,7.44235111 C14.0944103,7.44235111 14.0944103,7.44399304 14.0944103,7.44399304 C14.0944103,7.89439916 13.7389648,8.26291122 13.3006229,8.26291122 C13.2990249,8.26291122 13.2990249,8.26291122 13.297427,8.26291122 C12.859085,8.26291122 12.5020415,7.89768302 12.5004436,7.4472769 L12.4781161,1.97202534 C12.1162787,1.81152106 11.6125959,1.63626191 11.1885917,1.63626191 C10.6928768,1.64935237 10.0664363,1.84098583 9.61852858,2.00969976 L9.6647597,7.38834736 C9.6647597,7.38998929 9.6647597,7.39327315 9.6647597,7.39653452 C9.6647597,7.84529871 9.31248819,8.2105494 8.87416813,8.2154527 C8.87257018,8.2154527 8.86937428,8.2154527 8.86779822,8.2154527 C8.43105422,8.2154527 8.07401074,7.85348587 8.07081484,7.40310224 L8.02777962,2.56330005 C5.30530945,3.79659187 3.73205039,7.84858257 3.6109126,11.4174185 C3.59657482,11.8416212 3.26822879,12.1839299 2.85538838,12.2052075 C2.44097191,12.2281495 1.95320294,12.3378889 1.69976358,12.455793 L1.69976358,12.455748 Z" id="形状" stroke="url(#linearGradient-1)" stroke-width="0.5" fill="url(#linearGradient-1)" fill-rule="nonzero"></path>
                                        <path d="M7.81097915,7 L14.3582801,7 L14.3582801,7.55367138 C14.3582801,8.10595613 13.9105648,8.55367138 13.3582801,8.55367138 L8.81097915,8.55367138 C8.2586944,8.55367138 7.81097915,8.10595613 7.81097915,7.55367138 L7.81097915,7 L7.81097915,7 Z" id="矩形" fill="url(#linearGradient-2)"></path>
                                    </g>
                                </g>
                            </g>
                        </g>
                    </g>
                </g>
            </g>
        </g>
    </g>
</svg>